<?xml version='1.0' encoding='UTF-8'?>
<svg width="49mm" height="49mm" version="1.1" viewBox="0 0 49 49" xmlns="http://www.w3.org/2000/svg"><path d="M2,2H3V3H2zM3,2H4V3H3zM4,2H5V3H4zM5,2H6V3H5zM6,2H7V3H6zM7,2H8V3H7zM8,2H9V3H8zM11,2H12V3H11zM14,2H15V3H14zM16,2H17V3H16zM18,2H19V3H18zM23,2H24V3H23zM25,2H26V3H25zM27,2H28V3H27zM29,2H30V3H29zM30,2H31V3H30zM32,2H33V3H32zM33,2H34V3H33zM34,2H35V3H34zM38,2H39V3H38zM40,2H41V3H40zM41,2H42V3H41zM42,2H43V3H42zM43,2H44V3H43zM44,2H45V3H44zM45,2H46V3H45zM46,2H47V3H46zM2,3H3V4H2zM8,3H9V4H8zM13,3H14V4H13zM14,3H15V4H14zM16,3H17V4H16zM17,3H18V4H17zM18,3H19V4H18zM20,3H21V4H20zM21,3H22V4H21zM22,3H23V4H22zM23,3H24V4H23zM24,3H25V4H24zM26,3H27V4H26zM28,3H29V4H28zM29,3H30V4H29zM31,3H32V4H31zM33,3H34V4H33zM34,3H35V4H34zM35,3H36V4H35zM37,3H38V4H37zM40,3H41V4H40zM46,3H47V4H46zM2,4H3V5H2zM4,4H5V5H4zM5,4H6V5H5zM6,4H7V5H6zM8,4H9V5H8zM10,4H11V5H10zM11,4H12V5H11zM12,4H13V5H12zM14,4H15V5H14zM15,4H16V5H15zM19,4H20V5H19zM25,4H26V5H25zM29,4H30V5H29zM30,4H31V5H30zM31,4H32V5H31zM33,4H34V5H33zM34,4H35V5H34zM35,4H36V5H35zM37,4H38V5H37zM40,4H41V5H40zM42,4H43V5H42zM43,4H44V5H43zM44,4H45V5H44zM46,4H47V5H46zM2,5H3V6H2zM4,5H5V6H4zM5,5H6V6H5zM6,5H7V6H6zM8,5H9V6H8zM10,5H11V6H10zM11,5H12V6H11zM13,5H14V6H13zM14,5H15V6H14zM16,5H17V6H16zM17,5H18V6H17zM18,5H19V6H18zM20,5H21V6H20zM21,5H22V6H21zM22,5H23V6H22zM23,5H24V6H23zM26,5H27V6H26zM27,5H28V6H27zM28,5H29V6H28zM29,5H30V6H29zM31,5H32V6H31zM33,5H34V6H33zM37,5H38V6H37zM38,5H39V6H38zM40,5H41V6H40zM42,5H43V6H42zM43,5H44V6H43zM44,5H45V6H44zM46,5H47V6H46zM2,6H3V7H2zM4,6H5V7H4zM5,6H6V7H5zM6,6H7V7H6zM8,6H9V7H8zM10,6H11V7H10zM11,6H12V7H11zM13,6H14V7H13zM15,6H16V7H15zM16,6H17V7H16zM21,6H22V7H21zM22,6H23V7H22zM23,6H24V7H23zM24,6H25V7H24zM25,6H26V7H25zM26,6H27V7H26zM27,6H28V7H27zM31,6H32V7H31zM32,6H33V7H32zM33,6H34V7H33zM34,6H35V7H34zM36,6H37V7H36zM37,6H38V7H37zM38,6H39V7H38zM40,6H41V7H40zM42,6H43V7H42zM43,6H44V7H43zM44,6H45V7H44zM46,6H47V7H46zM2,7H3V8H2zM8,7H9V8H8zM10,7H11V8H10zM11,7H12V8H11zM13,7H14V8H13zM16,7H17V8H16zM19,7H20V8H19zM22,7H23V8H22zM26,7H27V8H26zM28,7H29V8H28zM29,7H30V8H29zM35,7H36V8H35zM40,7H41V8H40zM46,7H47V8H46zM2,8H3V9H2zM3,8H4V9H3zM4,8H5V9H4zM5,8H6V9H5zM6,8H7V9H6zM7,8H8V9H7zM8,8H9V9H8zM10,8H11V9H10zM12,8H13V9H12zM14,8H15V9H14zM16,8H17V9H16zM18,8H19V9H18zM20,8H21V9H20zM22,8H23V9H22zM24,8H25V9H24zM26,8H27V9H26zM28,8H29V9H28zM30,8H31V9H30zM32,8H33V9H32zM34,8H35V9H34zM36,8H37V9H36zM38,8H39V9H38zM40,8H41V9H40zM41,8H42V9H41zM42,8H43V9H42zM43,8H44V9H43zM44,8H45V9H44zM45,8H46V9H45zM46,8H47V9H46zM10,9H11V10H10zM11,9H12V10H11zM13,9H14V10H13zM14,9H15V10H14zM16,9H17V10H16zM21,9H22V10H21zM22,9H23V10H22zM26,9H27V10H26zM27,9H28V10H27zM30,9H31V10H30zM31,9H32V10H31zM32,9H33V10H32zM34,9H35V10H34zM38,9H39V10H38zM2,10H3V11H2zM4,10H5V11H4zM5,10H6V11H5zM6,10H7V11H6zM7,10H8V11H7zM8,10H9V11H8zM11,10H12V11H11zM12,10H13V11H12zM19,10H20V11H19zM22,10H23V11H22zM23,10H24V11H23zM24,10H25V11H24zM25,10H26V11H25zM26,10H27V11H26zM29,10H30V11H29zM31,10H32V11H31zM32,10H33V11H32zM36,10H37V11H36zM40,10H41V11H40zM41,10H42V11H41zM42,10H43V11H42zM43,10H44V11H43zM44,10H45V11H44zM2,11H3V12H2zM4,11H5V12H4zM9,11H10V12H9zM10,11H11V12H10zM11,11H12V12H11zM12,11H13V12H12zM13,11H14V12H13zM14,11H15V12H14zM20,11H21V12H20zM21,11H22V12H21zM23,11H24V12H23zM30,11H31V12H30zM32,11H33V12H32zM33,11H34V12H33zM37,11H38V12H37zM38,11H39V12H38zM42,11H43V12H42zM45,11H46V12H45zM46,11H47V12H46zM2,12H3V13H2zM3,12H4V13H3zM4,12H5V13H4zM5,12H6V13H5zM7,12H8V13H7zM8,12H9V13H8zM9,12H10V13H9zM11,12H12V13H11zM13,12H14V13H13zM15,12H16V13H15zM16,12H17V13H16zM17,12H18V13H17zM18,12H19V13H18zM23,12H24V13H23zM25,12H26V13H25zM26,12H27V13H26zM27,12H28V13H27zM28,12H29V13H28zM31,12H32V13H31zM35,12H36V13H35zM36,12H37V13H36zM38,12H39V13H38zM39,12H40V13H39zM40,12H41V13H40zM41,12H42V13H41zM44,12H45V13H44zM45,12H46V13H45zM2,13H3V14H2zM4,13H5V14H4zM5,13H6V14H5zM6,13H7V14H6zM7,13H8V14H7zM10,13H11V14H10zM13,13H14V14H13zM15,13H16V14H15zM16,13H17V14H16zM17,13H18V14H17zM18,13H19V14H18zM20,13H21V14H20zM25,13H26V14H25zM26,13H27V14H26zM27,13H28V14H27zM30,13H31V14H30zM31,13H32V14H31zM32,13H33V14H32zM34,13H35V14H34zM35,13H36V14H35zM36,13H37V14H36zM37,13H38V14H37zM38,13H39V14H38zM39,13H40V14H39zM42,13H43V14H42zM43,13H44V14H43zM44,13H45V14H44zM6,14H7V15H6zM8,14H9V15H8zM9,14H10V15H9zM11,14H12V15H11zM12,14H13V15H12zM13,14H14V15H13zM14,14H15V15H14zM15,14H16V15H15zM18,14H19V15H18zM19,14H20V15H19zM20,14H21V15H20zM21,14H22V15H21zM22,14H23V15H22zM23,14H24V15H23zM24,14H25V15H24zM27,14H28V15H27zM31,14H32V15H31zM32,14H33V15H32zM33,14H34V15H33zM38,14H39V15H38zM39,14H40V15H39zM46,14H47V15H46zM2,15H3V16H2zM4,15H5V16H4zM6,15H7V16H6zM9,15H10V16H9zM10,15H11V16H10zM13,15H14V16H13zM14,15H15V16H14zM15,15H16V16H15zM16,15H17V16H16zM19,15H20V16H19zM23,15H24V16H23zM25,15H26V16H25zM29,15H30V16H29zM31,15H32V16H31zM32,15H33V16H32zM34,15H35V16H34zM35,15H36V16H35zM37,15H38V16H37zM38,15H39V16H38zM41,15H42V16H41zM43,15H44V16H43zM45,15H46V16H45zM46,15H47V16H46zM2,16H3V17H2zM3,16H4V17H3zM5,16H6V17H5zM6,16H7V17H6zM8,16H9V17H8zM9,16H10V17H9zM14,16H15V17H14zM15,16H16V17H15zM17,16H18V17H17zM18,16H19V17H18zM19,16H20V17H19zM20,16H21V17H20zM21,16H22V17H21zM22,16H23V17H22zM24,16H25V17H24zM26,16H27V17H26zM27,16H28V17H27zM28,16H29V17H28zM29,16H30V17H29zM31,16H32V17H31zM35,16H36V17H35zM36,16H37V17H36zM37,16H38V17H37zM38,16H39V17H38zM39,16H40V17H39zM40,16H41V17H40zM41,16H42V17H41zM43,16H44V17H43zM44,16H45V17H44zM45,16H46V17H45zM4,17H5V18H4zM10,17H11V18H10zM11,17H12V18H11zM12,17H13V18H12zM13,17H14V18H13zM14,17H15V18H14zM15,17H16V18H15zM16,17H17V18H16zM19,17H20V18H19zM20,17H21V18H20zM27,17H28V18H27zM29,17H30V18H29zM30,17H31V18H30zM31,17H32V18H31zM32,17H33V18H32zM34,17H35V18H34zM38,17H39V18H38zM42,17H43V18H42zM43,17H44V18H43zM44,17H45V18H44zM45,17H46V18H45zM2,18H3V19H2zM3,18H4V19H3zM5,18H6V19H5zM8,18H9V19H8zM9,18H10V19H9zM10,18H11V19H10zM11,18H12V19H11zM14,18H15V19H14zM18,18H19V19H18zM20,18H21V19H20zM21,18H22V19H21zM22,18H23V19H22zM23,18H24V19H23zM24,18H25V19H24zM26,18H27V19H26zM27,18H28V19H27zM31,18H32V19H31zM32,18H33V19H32zM37,18H38V19H37zM41,18H42V19H41zM2,19H3V20H2zM3,19H4V20H3zM5,19H6V20H5zM6,19H7V20H6zM7,19H8V20H7zM9,19H10V20H9zM10,19H11V20H10zM11,19H12V20H11zM12,19H13V20H12zM13,19H14V20H13zM19,19H20V20H19zM23,19H24V20H23zM25,19H26V20H25zM26,19H27V20H26zM27,19H28V20H27zM32,19H33V20H32zM33,19H34V20H33zM37,19H38V20H37zM38,19H39V20H38zM39,19H40V20H39zM41,19H42V20H41zM42,19H43V20H42zM44,19H45V20H44zM46,19H47V20H46zM4,20H5V21H4zM5,20H6V21H5zM7,20H8V21H7zM8,20H9V21H8zM9,20H10V21H9zM10,20H11V21H10zM11,20H12V21H11zM12,20H13V21H12zM13,20H14V21H13zM15,20H16V21H15zM16,20H17V21H16zM18,20H19V21H18zM19,20H20V21H19zM20,20H21V21H20zM25,20H26V21H25zM26,20H27V21H26zM27,20H28V21H27zM28,20H29V21H28zM29,20H30V21H29zM31,20H32V21H31zM33,20H34V21H33zM36,20H37V21H36zM37,20H38V21H37zM40,20H41V21H40zM41,20H42V21H41zM43,20H44V21H43zM45,20H46V21H45zM2,21H3V22H2zM3,21H4V22H3zM4,21H5V22H4zM5,21H6V22H5zM7,21H8V22H7zM10,21H11V22H10zM12,21H13V22H12zM15,21H16V22H15zM16,21H17V22H16zM17,21H18V22H17zM18,21H19V22H18zM19,21H20V22H19zM20,21H21V22H20zM21,21H22V22H21zM23,21H24V22H23zM25,21H26V22H25zM27,21H28V22H27zM29,21H30V22H29zM31,21H32V22H31zM33,21H34V22H33zM34,21H35V22H34zM37,21H38V22H37zM41,21H42V22H41zM42,21H43V22H42zM44,21H45V22H44zM3,22H4V23H3zM4,22H5V23H4zM6,22H7V23H6zM7,22H8V23H7zM8,22H9V23H8zM9,22H10V23H9zM10,22H11V23H10zM12,22H13V23H12zM14,22H15V23H14zM15,22H16V23H15zM16,22H17V23H16zM18,22H19V23H18zM19,22H20V23H19zM20,22H21V23H20zM22,22H23V23H22zM23,22H24V23H23zM24,22H25V23H24zM25,22H26V23H25zM26,22H27V23H26zM27,22H28V23H27zM32,22H33V23H32zM33,22H34V23H33zM37,22H38V23H37zM38,22H39V23H38zM39,22H40V23H39zM40,22H41V23H40zM41,22H42V23H41zM42,22H43V23H42zM2,23H3V24H2zM3,23H4V24H3zM4,23H5V24H4zM5,23H6V24H5zM6,23H7V24H6zM10,23H11V24H10zM11,23H12V24H11zM13,23H14V24H13zM14,23H15V24H14zM16,23H17V24H16zM17,23H18V24H17zM20,23H21V24H20zM21,23H22V24H21zM22,23H23V24H22zM26,23H27V24H26zM27,23H28V24H27zM31,23H32V24H31zM32,23H33V24H32zM35,23H36V24H35zM37,23H38V24H37zM38,23H39V24H38zM42,23H43V24H42zM43,23H44V24H43zM44,23H45V24H44zM4,24H5V25H4zM6,24H7V25H6zM8,24H9V25H8zM10,24H11V25H10zM11,24H12V25H11zM12,24H13V25H12zM15,24H16V25H15zM16,24H17V25H16zM17,24H18V25H17zM20,24H21V25H20zM22,24H23V25H22zM24,24H25V25H24zM26,24H27V25H26zM27,24H28V25H27zM28,24H29V25H28zM29,24H30V25H29zM30,24H31V25H30zM35,24H36V25H35zM36,24H37V25H36zM37,24H38V25H37zM38,24H39V25H38zM40,24H41V25H40zM42,24H43V25H42zM44,24H45V25H44zM45,24H46V25H45zM2,25H3V26H2zM3,25H4V26H3zM6,25H7V26H6zM10,25H11V26H10zM11,25H12V26H11zM17,25H18V26H17zM19,25H20V26H19zM20,25H21V26H20zM22,25H23V26H22zM26,25H27V26H26zM30,25H31V26H30zM32,25H33V26H32zM34,25H35V26H34zM35,25H36V26H35zM38,25H39V26H38zM42,25H43V26H42zM43,25H44V26H43zM44,25H45V26H44zM45,25H46V26H45zM2,26H3V27H2zM3,26H4V27H3zM4,26H5V27H4zM6,26H7V27H6zM7,26H8V27H7zM8,26H9V27H8zM9,26H10V27H9zM10,26H11V27H10zM11,26H12V27H11zM12,26H13V27H12zM14,26H15V27H14zM15,26H16V27H15zM17,26H18V27H17zM18,26H19V27H18zM20,26H21V27H20zM22,26H23V27H22zM23,26H24V27H23zM24,26H25V27H24zM25,26H26V27H25zM26,26H27V27H26zM28,26H29V27H28zM29,26H30V27H29zM33,26H34V27H33zM38,26H39V27H38zM39,26H40V27H39zM40,26H41V27H40zM41,26H42V27H41zM42,26H43V27H42zM43,26H44V27H43zM45,26H46V27H45zM46,26H47V27H46zM2,27H3V28H2zM6,27H7V28H6zM10,27H11V28H10zM14,27H15V28H14zM15,27H16V28H15zM17,27H18V28H17zM19,27H20V28H19zM20,27H21V28H20zM21,27H22V28H21zM22,27H23V28H22zM24,27H25V28H24zM26,27H27V28H26zM30,27H31V28H30zM32,27H33V28H32zM33,27H34V28H33zM34,27H35V28H34zM35,27H36V28H35zM37,27H38V28H37zM38,27H39V28H38zM39,27H40V28H39zM40,27H41V28H40zM41,27H42V28H41zM43,27H44V28H43zM46,27H47V28H46zM7,28H8V29H7zM8,28H9V29H8zM9,28H10V29H9zM12,28H13V29H12zM14,28H15V29H14zM17,28H18V29H17zM20,28H21V29H20zM24,28H25V29H24zM25,28H26V29H25zM27,28H28V29H27zM28,28H29V29H28zM31,28H32V29H31zM35,28H36V29H35zM36,28H37V29H36zM39,28H40V29H39zM43,28H44V29H43zM45,28H46V29H45zM3,29H4V30H3zM4,29H5V30H4zM5,29H6V30H5zM10,29H11V30H10zM13,29H14V30H13zM14,29H15V30H14zM15,29H16V30H15zM19,29H20V30H19zM20,29H21V30H20zM22,29H23V30H22zM23,29H24V30H23zM26,29H27V30H26zM30,29H31V30H30zM32,29H33V30H32zM37,29H38V30H37zM40,29H41V30H40zM41,29H42V30H41zM43,29H44V30H43zM44,29H45V30H44zM2,30H3V31H2zM3,30H4V31H3zM4,30H5V31H4zM5,30H6V31H5zM6,30H7V31H6zM8,30H9V31H8zM14,30H15V31H14zM16,30H17V31H16zM20,30H21V31H20zM22,30H23V31H22zM23,30H24V31H23zM26,30H27V31H26zM28,30H29V31H28zM29,30H30V31H29zM31,30H32V31H31zM33,30H34V31H33zM38,30H39V31H38zM40,30H41V31H40zM42,30H43V31H42zM46,30H47V31H46zM2,31H3V32H2zM5,31H6V32H5zM6,31H7V32H6zM11,31H12V32H11zM14,31H15V32H14zM15,31H16V32H15zM16,31H17V32H16zM17,31H18V32H17zM20,31H21V32H20zM21,31H22V32H21zM22,31H23V32H22zM23,31H24V32H23zM24,31H25V32H24zM29,31H30V32H29zM30,31H31V32H30zM32,31H33V32H32zM35,31H36V32H35zM37,31H38V32H37zM40,31H41V32H40zM43,31H44V32H43zM44,31H45V32H44zM45,31H46V32H45zM46,31H47V32H46zM2,32H3V33H2zM3,32H4V33H3zM4,32H5V33H4zM6,32H7V33H6zM8,32H9V33H8zM9,32H10V33H9zM12,32H13V33H12zM13,32H14V33H13zM14,32H15V33H14zM16,32H17V33H16zM17,32H18V33H17zM18,32H19V33H18zM19,32H20V33H19zM20,32H21V33H20zM22,32H23V33H22zM24,32H25V33H24zM27,32H28V33H27zM28,32H29V33H28zM29,32H30V33H29zM36,32H37V33H36zM37,32H38V33H37zM38,32H39V33H38zM41,32H42V33H41zM43,32H44V33H43zM44,32H45V33H44zM3,33H4V34H3zM4,33H5V34H4zM6,33H7V34H6zM7,33H8V34H7zM9,33H10V34H9zM13,33H14V34H13zM14,33H15V34H14zM15,33H16V34H15zM16,33H17V34H16zM20,33H21V34H20zM21,33H22V34H21zM22,33H23V34H22zM25,33H26V34H25zM26,33H27V34H26zM29,33H30V34H29zM30,33H31V34H30zM34,33H35V34H34zM35,33H36V34H35zM40,33H41V34H40zM41,33H42V34H41zM44,33H45V34H44zM45,33H46V34H45zM3,34H4V35H3zM4,34H5V35H4zM8,34H9V35H8zM10,34H11V35H10zM13,34H14V35H13zM17,34H18V35H17zM18,34H19V35H18zM21,34H22V35H21zM23,34H24V35H23zM28,34H29V35H28zM31,34H32V35H31zM32,34H33V35H32zM33,34H34V35H33zM35,34H36V35H35zM36,34H37V35H36zM38,34H39V35H38zM42,34H43V35H42zM2,35H3V36H2zM4,35H5V36H4zM7,35H8V36H7zM9,35H10V36H9zM11,35H12V36H11zM12,35H13V36H12zM15,35H16V36H15zM16,35H17V36H16zM17,35H18V36H17zM18,35H19V36H18zM19,35H20V36H19zM20,35H21V36H20zM22,35H23V36H22zM23,35H24V36H23zM24,35H25V36H24zM25,35H26V36H25zM26,35H27V36H26zM30,35H31V36H30zM32,35H33V36H32zM33,35H34V36H33zM38,35H39V36H38zM40,35H41V36H40zM41,35H42V36H41zM43,35H44V36H43zM44,35H45V36H44zM45,35H46V36H45zM46,35H47V36H46zM6,36H7V37H6zM8,36H9V37H8zM9,36H10V37H9zM12,36H13V37H12zM14,36H15V37H14zM16,36H17V37H16zM20,36H21V37H20zM22,36H23V37H22zM23,36H24V37H23zM24,36H25V37H24zM25,36H26V37H25zM28,36H29V37H28zM29,36H30V37H29zM31,36H32V37H31zM33,36H34V37H33zM34,36H35V37H34zM35,36H36V37H35zM36,36H37V37H36zM38,36H39V37H38zM41,36H42V37H41zM42,36H43V37H42zM43,36H44V37H43zM44,36H45V37H44zM3,37H4V38H3zM4,37H5V38H4zM5,37H6V38H5zM6,37H7V38H6zM9,37H10V38H9zM11,37H12V38H11zM13,37H14V38H13zM15,37H16V38H15zM17,37H18V38H17zM20,37H21V38H20zM22,37H23V38H22zM26,37H27V38H26zM29,37H30V38H29zM33,37H34V38H33zM34,37H35V38H34zM37,37H38V38H37zM38,37H39V38H38zM39,37H40V38H39zM40,37H41V38H40zM41,37H42V38H41zM44,37H45V38H44zM46,37H47V38H46zM2,38H3V39H2zM5,38H6V39H5zM6,38H7V39H6zM8,38H9V39H8zM9,38H10V39H9zM11,38H12V39H11zM13,38H14V39H13zM15,38H16V39H15zM16,38H17V39H16zM18,38H19V39H18zM20,38H21V39H20zM22,38H23V39H22zM23,38H24V39H23zM24,38H25V39H24zM25,38H26V39H25zM26,38H27V39H26zM28,38H29V39H28zM31,38H32V39H31zM32,38H33V39H32zM38,38H39V39H38zM39,38H40V39H39zM40,38H41V39H40zM41,38H42V39H41zM42,38H43V39H42zM43,38H44V39H43zM10,39H11V40H10zM12,39H13V40H12zM13,39H14V40H13zM16,39H17V40H16zM17,39H18V40H17zM21,39H22V40H21zM22,39H23V40H22zM26,39H27V40H26zM27,39H28V40H27zM29,39H30V40H29zM30,39H31V40H30zM31,39H32V40H31zM32,39H33V40H32zM34,39H35V40H34zM35,39H36V40H35zM37,39H38V40H37zM38,39H39V40H38zM42,39H43V40H42zM43,39H44V40H43zM44,39H45V40H44zM45,39H46V40H45zM46,39H47V40H46zM2,40H3V41H2zM3,40H4V41H3zM4,40H5V41H4zM5,40H6V41H5zM6,40H7V41H6zM7,40H8V41H7zM8,40H9V41H8zM11,40H12V41H11zM15,40H16V41H15zM18,40H19V41H18zM21,40H22V41H21zM22,40H23V41H22zM24,40H25V41H24zM26,40H27V41H26zM27,40H28V41H27zM28,40H29V41H28zM31,40H32V41H31zM36,40H37V41H36zM37,40H38V41H37zM38,40H39V41H38zM40,40H41V41H40zM42,40H43V41H42zM44,40H45V41H44zM2,41H3V42H2zM8,41H9V42H8zM10,41H11V42H10zM12,41H13V42H12zM14,41H15V42H14zM18,41H19V42H18zM20,41H21V42H20zM22,41H23V42H22zM26,41H27V42H26zM28,41H29V42H28zM30,41H31V42H30zM32,41H33V42H32zM33,41H34V42H33zM34,41H35V42H34zM36,41H37V42H36zM37,41H38V42H37zM38,41H39V42H38zM42,41H43V42H42zM43,41H44V42H43zM44,41H45V42H44zM2,42H3V43H2zM4,42H5V43H4zM5,42H6V43H5zM6,42H7V43H6zM8,42H9V43H8zM10,42H11V43H10zM12,42H13V43H12zM14,42H15V43H14zM19,42H20V43H19zM20,42H21V43H20zM22,42H23V43H22zM23,42H24V43H23zM24,42H25V43H24zM25,42H26V43H25zM26,42H27V43H26zM29,42H30V43H29zM32,42H33V43H32zM33,42H34V43H33zM35,42H36V43H35zM36,42H37V43H36zM37,42H38V43H37zM38,42H39V43H38zM39,42H40V43H39zM40,42H41V43H40zM41,42H42V43H41zM42,42H43V43H42zM43,42H44V43H43zM45,42H46V43H45zM2,43H3V44H2zM4,43H5V44H4zM5,43H6V44H5zM6,43H7V44H6zM8,43H9V44H8zM10,43H11V44H10zM11,43H12V44H11zM12,43H13V44H12zM13,43H14V44H13zM14,43H15V44H14zM17,43H18V44H17zM18,43H19V44H18zM19,43H20V44H19zM20,43H21V44H20zM21,43H22V44H21zM25,43H26V44H25zM26,43H27V44H26zM31,43H32V44H31zM32,43H33V44H32zM33,43H34V44H33zM40,43H41V44H40zM42,43H43V44H42zM43,43H44V44H43zM45,43H46V44H45zM46,43H47V44H46zM2,44H3V45H2zM4,44H5V45H4zM5,44H6V45H5zM6,44H7V45H6zM8,44H9V45H8zM10,44H11V45H10zM11,44H12V45H11zM13,44H14V45H13zM21,44H22V45H21zM23,44H24V45H23zM24,44H25V45H24zM25,44H26V45H25zM26,44H27V45H26zM27,44H28V45H27zM28,44H29V45H28zM29,44H30V45H29zM31,44H32V45H31zM33,44H34V45H33zM35,44H36V45H35zM36,44H37V45H36zM37,44H38V45H37zM38,44H39V45H38zM39,44H40V45H39zM41,44H42V45H41zM44,44H45V45H44zM45,44H46V45H45zM2,45H3V46H2zM8,45H9V46H8zM11,45H12V46H11zM12,45H13V46H12zM14,45H15V46H14zM15,45H16V46H15zM16,45H17V46H16zM18,45H19V46H18zM20,45H21V46H20zM21,45H22V46H21zM22,45H23V46H22zM24,45H25V46H24zM25,45H26V46H25zM26,45H27V46H26zM30,45H31V46H30zM31,45H32V46H31zM32,45H33V46H32zM33,45H34V46H33zM34,45H35V46H34zM35,45H36V46H35zM37,45H38V46H37zM39,45H40V46H39zM43,45H44V46H43zM44,45H45V46H44zM2,46H3V47H2zM3,46H4V47H3zM4,46H5V47H4zM5,46H6V47H5zM6,46H7V47H6zM7,46H8V47H7zM8,46H9V47H8zM10,46H11V47H10zM11,46H12V47H11zM12,46H13V47H12zM13,46H14V47H13zM15,46H16V47H15zM16,46H17V47H16zM17,46H18V47H17zM19,46H20V47H19zM21,46H22V47H21zM24,46H25V47H24zM25,46H26V47H25zM26,46H27V47H26zM29,46H30V47H29zM31,46H32V47H31zM32,46H33V47H32zM35,46H36V47H35zM36,46H37V47H36zM37,46H38V47H37zM40,46H41V47H40zM45,46H46V47H45z" id="qr-path" fill="#000000" fill-opacity="1" fill-rule="nonzero" stroke="none" /></svg>